<?xml version="1.0" standalone="no"?>
<!DOCTYPE svg PUBLIC "-//W3C//DTD SVG 20010904//EN"
 "http://www.w3.org/TR/2001/REC-SVG-20010904/DTD/svg10.dtd">
<svg version="1.0" xmlns="http://www.w3.org/2000/svg"
 width="700.000000pt" height="700.000000pt" viewBox="0 0 700.000000 700.000000"
 preserveAspectRatio="xMidYMid meet">
<metadata>
Created by potrace 1.11, written by Peter Selinger 2001-2013
</metadata>
<g transform="translate(0.000000,700.000000) scale(0.100000,-0.100000)"
fill="#000000" stroke="none">
<path d="M3253 6920 c3 -19 8 -48 12 -65 3 -16 13 -68 21 -115 9 -47 18 -94
20 -105 8 -43 55 -322 60 -360 3 -22 7 -53 9 -70 3 -16 7 -48 10 -70 3 -22 7
-56 10 -75 2 -19 7 -62 11 -95 3 -33 7 -70 9 -83 3 -20 9 -86 20 -242 2 -25 4
-46 4 -48 1 -1 18 6 39 17 85 43 263 95 372 108 25 3 46 6 47 7 3 2 -181 362
-271 529 -20 37 -52 97 -72 135 -20 37 -51 94 -69 127 -53 99 -109 204 -170
320 -68 129 -69 130 -62 85z"/>
<path d="M3491 6684 c8 -12 57 -84 111 -160 53 -77 168 -242 256 -369 88 -126
186 -267 218 -312 31 -45 60 -87 64 -92 6 -11 367 -104 380 -99 4 2 -229 239
-518 528 -289 289 -519 515 -511 504z"/>
<path d="M4267 5533 c4 -10 22 -45 41 -78 251 -442 452 -1001 522 -1450 6 -38
13 -81 15 -94 14 -80 20 -205 20 -416 0 -251 -8 -363 -39 -520 -2 -11 -7 -40
-12 -65 -4 -25 -8 -47 -9 -50 -1 -3 -4 -18 -8 -35 -4 -16 -9 -39 -11 -50 -13
-64 -91 -311 -116 -370 -5 -11 -23 -56 -41 -100 -43 -106 -161 -336 -235 -457
-117 -193 -315 -460 -449 -608 -22 -24 -62 -69 -90 -99 -57 -63 -249 -254
-318 -319 -71 -64 -65 -63 48 5 11 6 56 33 100 59 227 133 511 328 700 479 61
49 112 91 115 94 3 3 43 40 90 81 121 107 238 226 360 366 315 362 524 811
577 1236 10 80 10 411 0 503 -56 519 -306 1079 -749 1676 -114 153 -111 151
-198 165 -8 1 -26 5 -40 8 -14 3 -74 15 -135 27 -60 11 -118 23 -127 25 -14 4
-16 1 -11 -13z"/>
<path d="M3925 5479 c-99 -35 -236 -103 -378 -187 l-108 -64 6 -86 c29 -458
22 -943 -20 -1317 -56 -500 -138 -878 -287 -1320 -115 -343 -321 -782 -511
-1090 -146 -236 -390 -571 -532 -731 -5 -7 -37 -43 -70 -80 -129 -147 -280
-302 -456 -468 -108 -102 -103 -100 120 41 434 275 824 567 1136 852 73 67
386 381 435 436 482 548 786 1095 935 1685 57 229 80 368 101 630 16 201 3
506 -32 750 -41 290 -86 473 -189 788 -30 89 -58 168 -62 175 -6 11 -24 8 -88
-14z"/>
</g>
</svg>
